<?xml version="1.0" encoding="UTF-8" standalone="no"?>
<!-- Created with Inkscape (http://www.inkscape.org/) -->

<svg
   xmlns:dc="http://purl.org/dc/elements/1.1/"
   xmlns:cc="http://creativecommons.org/ns#"
   xmlns:rdf="http://www.w3.org/1999/02/22-rdf-syntax-ns#"
   xmlns:svg="http://www.w3.org/2000/svg"
   xmlns="http://www.w3.org/2000/svg"
   xmlns:sodipodi="http://sodipodi.sourceforge.net/DTD/sodipodi-0.dtd"
   xmlns:inkscape="http://www.inkscape.org/namespaces/inkscape"
   width="93.75"
   height="90"
   id="svg5179"
   version="1.1"
   inkscape:version="0.48.3.1 r9886"
   sodipodi:docname="fbspeech.svg">
  <defs
     id="defs5181" />
  <sodipodi:namedview
     id="base"
     pagecolor="#ffffff"
     bordercolor="#666666"
     borderopacity="1.0"
     inkscape:pageopacity="0.0"
     inkscape:pageshadow="2"
     inkscape:zoom="5.6"
     inkscape:cx="46.905581"
     inkscape:cy="45.177323"
     inkscape:document-units="px"
     inkscape:current-layer="layer1"
     showgrid="false"
     inkscape:window-width="1301"
     inkscape:window-height="744"
     inkscape:window-x="65"
     inkscape:window-y="24"
     inkscape:window-maximized="1"
     width="744.09px" />
  <metadata
     id="metadata5184">
    <rdf:RDF>
      <cc:Work
         rdf:about="">
        <dc:format>image/svg+xml</dc:format>
        <dc:type
           rdf:resource="http://purl.org/dc/dcmitype/StillImage" />
        <dc:title></dc:title>
      </cc:Work>
    </rdf:RDF>
  </metadata>
  <g
     inkscape:label="Layer 1"
     inkscape:groupmode="layer"
     id="layer1"
     transform="translate(0,-962.36068)">
    <g
       id="g5401"
       transform="translate(-361.33276,677.62444)">
      <g
         transform="matrix(3,0,0,3,-858.22082,-1027.3503)"
         id="g5296">
        <path
           style="fill:#ffffff"
           inkscape:connector-curvature="0"
           d="m 406.51786,437.36218 8.6375,0 c -4.225,1.6375 -3.8,6.325 -3.675,10 3.775,0 7.55,0 11.325,0 0.1375,-3.675 0.5125,-8.225 -3.55,-10 l 8.5125,0 0,9.9875 c -0.925,0 -2.775,0.0125 -3.7,0.0125 -0.225,3.7125 0.75,8.525 -2.8125,11.0125 -2.9625,2.6375 -8.025,1.625 -10.075,-1.6625 -1.2125,-2.95 -0.8375,-6.2375 -0.9625,-9.35 -0.925,0 -2.775,-0.0125 -3.7,-0.0125 l 0,-9.9875 z"
           id="path5013" />
        <path
           style="fill:#000000"
           inkscape:connector-curvature="0"
           d="m 415.15536,437.36218 4.1,0 c 4.0625,1.775 3.6875,6.325 3.55,10 -3.775,0 -7.55,0 -11.325,0 -0.125,-3.675 -0.55,-8.3625 3.675,-10 z"
           id="path5015" />
        <path
           style="fill:#000000"
           inkscape:connector-curvature="0"
           d="m 406.51786,447.34968 c 0.925,0 2.775,0.0125 3.7,0.0125 0.125,3.1125 -0.25,6.4 0.9625,9.35 2.05,3.2875 7.1125,4.3 10.075,1.6625 3.5625,-2.4875 2.5875,-7.3 2.8125,-11.0125 0.925,0 2.775,-0.0125 3.7,-0.0125 l 0,0.2375 c -1.7625,2.775 -0.9,6.1375 -1.6125,9.1875 -0.8875,2.925 -3.75,4.4 -6.2,5.8375 1.8375,1.2 4.2875,2.1875 4.3875,4.75 l -14.4625,0 c 0.175,-2.5625 2.6125,-3.5125 4.4625,-4.725 -1.9125,-1.225 -4.1625,-2.2 -5.4,-4.2125 -2.1875,-3.2 -0.175,-7.5125 -2.425,-10.7125 l 0,-0.3625 z"
           id="path5017" />
        <path
           style="fill:#000000"
           inkscape:connector-curvature="0"
           d="m 411.49286,448.61218 c 3.7625,0 7.5375,0 11.3,0 -0.3,2.5125 0.8,5.6125 -1.1875,7.6125 -2.2,2.75 -6.8625,2.7 -9,-0.0875 -1.875,-2.0125 -0.8125,-5.05 -1.1125,-7.525 z"
           id="path5021" />
      </g>
      <path
         style="fill:#3b5997;fill-opacity:1"
         id="path4293"
         d="m 425.39526,344.73617 29.3625,0 c 0.075,0.075 0.2375,0.2375 0.325,0.325 l 0,29.35 c -0.075,0.075 -0.2375,0.2375 -0.3125,0.325 l -9.6875,0 c 0,-4.1625 0,-8.3375 0,-12.5 0.9375,0 2.8125,0 3.75,0 0,-0.9375 0,-2.8125 0,-3.7375 -0.9375,-0.0125 -2.825,-0.0125 -3.7625,-0.025 0.0125,-0.925 0.0375,-2.775 0.0625,-3.7 0.925,-0.0125 2.775,-0.0375 3.7,-0.05 0,-1.725 -0.0125,-3.45 -0.0125,-5.175 -2.35,0.2125 -4.775,0.175 -7.0625,0.825 -1.975,2.1625 -1.375,5.425 -1.8875,8.1125 -0.575,0 -1.7125,0.0125 -2.2875,0.025 0,0.925 0,2.775 0,3.7 0.625,0.0125 1.875,0.0375 2.5,0.05 0,4.1625 0,8.3125 0,12.475 l -14.9625,0 c -0.0125,-0.1 -0.025,-0.2875 -0.0375,-0.375 l 0,-29.3 c 0.075,-0.075 0.2375,-0.2375 0.3125,-0.325 z"
         inkscape:connector-curvature="0" />
    </g>
  </g>
</svg>
